PathFileType	4	(X/Y/Z)	G:\TennisProject\Miami_Dimitrov_Sinner_masked_Sports2D\Miami_Dimitrov_Sinner_masked_Sports2D_m_person02.trc
DataRate	CameraRate	NumFrames	NumMarkers	Units	OrigDataRate	OrigDataStartFrame	OrigNumFrames
25	25	11	22	m	25	62	499
Frame#	Time	Hip			RHip			RKnee			RAnkle			RBigToe			RSmallToe			RHeel			LHip			LKnee			LAnkle			LBigToe			LSmallToe			LHeel			Neck			Head			Nose			RShoulder			RElbow			RWrist			LShoulder			LElbow			LWrist		
		X1	Y1	Z1	X2	Y2	Z2	X3	Y3	Z3	X4	Y4	Z4	X5	Y5	Z5	X6	Y6	Z6	X7	Y7	Z7	X8	Y8	Z8	X9	Y9	Z9	X10	Y10	Z10	X11	Y11	Z11	X12	Y12	Z12	X13	Y13	Z13	X14	Y14	Z14	X15	Y15	Z15	X16	Y16	Z16	X17	Y17	Z17	X18	Y18	Z18	X19	Y19	Z19	X20	Y20	Z20	X21	Y21	Z21	X22	Y22	Z22
62	2.48	22.126698656118265	2.050467860771269	0.0	22.029589780441647	2.0325463116186513	0.0	21.997139402132053	1.688063939812965	0.0	21.953722028049008	1.3260169069198116	0.0	21.94795513381793	1.2478104653262647	0.0	21.90552279026705	1.2519469737783402	0.0	21.962964430059667	1.2801864563128984	0.0	22.206741686249735	2.028761699176184	0.0	22.20870750646036	1.6891252197213542	0.0	22.208571476404845	1.3212094095843103	0.0	22.22761137879428	1.2524830016102402	0.0	22.265057443022783	1.2538688753532437	0.0	22.179430294645332	1.2710795422324312	0.0	22.139305566629016	2.5633853202564327	0.0	22.141271526020187	2.789519256501108	0.0	22.141957510058784	2.667171262351433	0.0	21.974025405624918	2.4688918081218945	0.0	21.925118819784018	2.2480534835827135	0.0	22.04272927348465	2.1467849781110337	0.0	22.29826972200407	2.4661548091064502	0.0	22.31954223138033	2.251587727974743	0.0	22.206246362488482	2.155699004403999	0.0
63	2.52	22.127242101907342	2.052746296484139	0.0	22.030939080872702	2.035244334148959	0.0	21.997324233017622	1.687991697748799	0.0	21.956354260176816	1.3247759958480247	0.0	21.951212800604814	1.2491307530320368	0.0	21.905492397182776	1.253604749037	0.0	21.962678340942087	1.2800156675946595	0.0	22.20816926129643	2.0307773245996183	0.0	22.209935817983194	1.688254297000129	0.0	22.20892329313807	1.3216542183375954	0.0	22.226384523935415	1.2531781314083001	0.0	22.265389150376507	1.2574604498166222	0.0	22.18004190019551	1.2730981997998303	0.0	22.13890798305838	2.562082506879907	0.0	22.142035751331107	2.789347562103796	0.0	22.140775958070755	2.6652057875404997	0.0	21.974638391557523	2.469076038405325	0.0	21.92770007334536	2.2501555411671017	0.0	22.043582519275088	2.148547654918709	0.0	22.299432367439096	2.466264649931861	0.0	22.320983236350727	2.2514180340428545	0.0	22.207484178280865	2.1562431047993695	0.0
64	2.56	22.128737760223068	2.053474039609881	0.0	22.031528014268396	2.0383127992306136	0.0	21.99841484816133	1.6872431445665992	0.0	21.958265720248065	1.323641546358439	0.0	21.951427264878205	1.2494688332224455	0.0	21.90678904270901	1.2549683613586136	0.0	21.961668385147526	1.2794636937100536	0.0	22.209953544505925	2.0331971885492655	0.0	22.211929358502598	1.6868568133069277	0.0	22.210166579189018	1.3212455830265761	0.0	22.226043477986707	1.2542131680259687	0.0	22.266273451252395	1.2607775580130312	0.0	22.17955664791752	1.2748003136609698	0.0	22.140221294354745	2.5615820169289987	0.0	22.14370491791085	2.788599192616708	0.0	22.140710000945994	2.66294350530233	0.0	21.976533199035245	2.468908617120655	0.0	21.92942022497116	2.251957565055007	0.0	22.04392315291584	2.1493064707376224	0.0	22.30150027302591	2.4663879957365014	0.0	22.324971464600203	2.253706440860955	0.0	22.20920807952431	2.157553191317845	0.0
65	2.6	22.12832644017257	2.051100523012941	0.0	22.030077253521423	2.035804497902699	0.0	21.998628420896413	1.6870777291128378	0.0	21.955675077961203	1.324461674262854	0.0	21.94839515857616	1.2483510044587747	0.0	21.90698671076396	1.255038717155557	0.0	21.961976643925503	1.2813830922465692	0.0	22.208875604527513	2.0313176092610292	0.0	22.21087810197245	1.6872430170184203	0.0	22.209831330734694	1.3213883524870402	0.0	22.22724231094089	1.2529484367635737	0.0	22.266174532131014	1.2588791289664742	0.0	22.17893561044662	1.2728630893224597	0.0	22.139679284427544	2.5639039466999205	0.0	22.143082925865645	2.788556230177522	0.0	22.141819695988925	2.664622978233522	0.0	21.975970576389525	2.468869626380909	0.0	21.9270228638041	2.2500909210080398	0.0	22.04298818888995	2.1467382224894926	0.0	22.300209711028568	2.466068601191558	0.0	22.323766424242795	2.2533659450360393	0.0	22.208145415726058	2.1566302140230706	0.0
66	2.64	22.126874874231774	2.049360313355213	0.0	22.02953787745474	2.0330147669077663	0.0	21.99731733041144	1.6881268038531867	0.0	21.953902826178005	1.326132116104787	0.0	21.948134977226406	1.248608397151764	0.0	21.90591979818454	1.2543417095366494	0.0	21.963135481259116	1.2825825527319987	0.0	22.206944965912896	2.0290082625462715	0.0	22.208876171578957	1.6878536495792087	0.0	22.208534022816263	1.3215055586609998	0.0	22.227512925315963	1.251435619043321	0.0	22.265224683601534	1.2564734780903983	0.0	22.17936741058482	1.271404263289657	0.0	22.13929099360614	2.564947388533761	0.0	22.141440533262365	2.7892286254751975	0.0	22.141867369570065	2.6668858077375033	0.0	21.974206251680805	2.4688650826286556	0.0	21.92506911897369	2.2481058522740915	0.0	22.042904602740467	2.1452215860725903	0.0	22.298420072822726	2.466113372379816	0.0	22.31970053104368	2.2501261302606363	0.0	22.206185546211113	2.155728734065614	0.0
67	2.68	22.12724760577796	2.050691567137076	0.0	22.031123550398195	2.0354383515648853	0.0	21.99627120297321	1.6889409726499693	0.0	21.95667729946264	1.3264801373778523	0.0	21.95156190752894	1.250274764025025	0.0	21.905963881091612	1.2534079632033692	0.0	21.96303974998777	1.279765555853585	0.0	22.2077831260519	2.031043956277646	0.0	22.209775246696555	1.6869676209842	0.0	22.208743874659987	1.321155544084555	0.0	22.226197749328517	1.2527715911781316	0.0	22.265109589682822	1.2586614849549853	0.0	22.179899383241633	1.2735895565825683	0.0	22.14230873465586	2.562718271290722	0.0	22.1419910983161	2.7894837132323347	0.0	22.14078270647465	2.6655915201425593	0.0	21.974927714545842	2.4685410688555773	0.0	21.92675193051749	2.249852240457112	0.0	22.04397640682486	2.1477675809038663	0.0	22.300413811689296	2.46704220851488	0.0	22.320593719116854	2.250114040740081	0.0	22.20705370714935	2.1576976906326006	0.0
68	2.72	22.128624669955034	2.0523108564157497	0.0	22.0316632084372	2.0374213283916456	0.0	21.996677708840323	1.6885616437106834	0.0	21.958553531998433	1.3258259817058795	0.0	21.953064816099925	1.2503208068316887	0.0	21.907192058426368	1.2522916780405944	0.0	21.961965255378026	1.2767306064212225	0.0	22.20942322151957	2.033642416787606	0.0	22.21161437251654	1.6865602010295757	0.0	22.20989178828684	1.321576178779552	0.0	22.22572007691219	1.2549678839276508	0.0	22.26580151973608	1.2612515867631036	0.0	22.17936692903806	1.275168401310409	0.0	22.14514807368048	2.5611585489106585	0.0	22.14353582934516	2.7892323477793135	0.0	22.140814882022333	2.663883598087812	0.0	21.976773427850354	2.4683647609188433	0.0	21.92788454527028	2.251901143735237	0.0	22.04403362589122	2.1500785140624523	0.0	22.3028583928171	2.4678021843917395	0.0	22.32436754256129	2.2539355926840803	0.0	22.20891624505285	2.1596711214636155	0.0
69	2.7600000000000002	22.128198514034416	2.051851678221139	0.0	22.029894600759604	2.0343600816322764	0.0	21.997344400876965	1.6883220635137315	0.0	21.955745334145544	1.3259429502712663	0.0	21.950746454821097	1.248294862457592	0.0	21.907145861677446	1.2515609658500748	0.0	21.961919381861794	1.277884203366171	0.0	22.208722337362023	2.032128337159841	0.0	22.210654182832677	1.6882568378661886	0.0	22.20961899287253	1.3228400241772154	0.0	22.226820724139493	1.2544662256077246	0.0	22.265712573214255	1.2587810855026806	0.0	22.178804193629112	1.2730613501983163	0.0	22.14297946768639	2.5627701332389408	0.0	22.142930107276214	2.789435047589744	0.0	22.141571333749816	2.665642934173234	0.0	21.97602766127846	2.468948514330774	0.0	21.925826730292197	2.2504419238136353	0.0	22.04274855432917	2.1480590582658645	0.0	22.300985838982808	2.467500773239744	0.0	22.323410015489628	2.2552544675817385	0.0	22.20811541371335	2.1582259463372737	0.0
70	2.8000000000000003	22.12675744194248	2.051324355323929	0.0	22.029426703186836	2.032002191472083	0.0	21.997139789378288	1.6885133151536404	0.0	21.95369611586645	1.3263661821972577	0.0	21.94930921891813	1.2478428944424058	0.0	21.905739951543755	1.2521965701124151	0.0	21.9629752517167	1.280447874793927	0.0	22.208030629499305	2.0296280757610057	0.0	22.208804195049908	1.6898901837998157	0.0	22.208457269572268	1.3233844890834805	0.0	22.227495565618316	1.2530112172057113	0.0	22.265254681289488	1.2559906338550777	0.0	22.179252916404565	1.2713870561045848	0.0	22.139015748434232	2.5643659353558506	0.0	22.141334261492393	2.790103085707286	0.0	22.14040591494183	2.667689845127776	0.0	21.974047383775655	2.4695099791377086	0.0	21.924847475930402	2.2486291772590974	0.0	22.042581914070126	2.1460388157963677	0.0	22.29845206597129	2.4667234294537854	0.0	22.319725012995296	2.252838019294117	0.0	22.206093723644297	2.1562506888279436	0.0
71	2.84	22.126997502507404	2.052191139560629	0.0	22.031883491400425	2.034305078841543	0.0	21.997205171840136	1.6873725003504754	0.0	21.956222766900705	1.3255896773583782	0.0	21.95115246079331	1.250332673620144	0.0	21.905410492313184	1.2536343679588404	0.0	21.963500356731547	1.280001098622822	0.0	22.20997656799796	2.0301392649522896	0.0	22.209622737913342	1.6890868783053512	0.0	22.20858795985225	1.322559007511374	0.0	22.227216978679802	1.2541818998494654	0.0	22.266178453850436	1.2587104652217673	0.0	22.17949389687848	1.2740281890595349	0.0	22.139629917894826	2.56320708050877	0.0	22.14177607264184	2.7902898311101403	0.0	22.138524790849402	2.6662697723175244	0.0	21.974463634123037	2.469416246545708	0.0	21.927590732477146	2.2504522245049485	0.0	22.044573583355714	2.149124849132577	0.0	22.30021524875276	2.4663528921744025	0.0	22.3205604468508	2.2506179231916836	0.0	22.20598824422813	2.1576933433486283	0.0
72	2.88	22.128120549209957	2.0523213492795924	0.0	22.03302677625828	2.0361601429968412	0.0	21.998022048794194	1.6855024243148589	0.0	21.95796265180991	1.3244309995721506	0.0	21.952223060362932	1.2517605186692202	0.0	21.906317735203054	1.2539596419141035	0.0	21.963306949885908	1.278452238346515	0.0	22.211731922546296	2.030724795949569	0.0	22.211153303336065	1.6868803923466047	0.0	22.20944237021692	1.3215077132062856	0.0	22.227198081287273	1.2562222445545461	0.0	22.26726962382138	1.261307563532575	0.0	22.17898638496535	1.2770169592578084	0.0	22.14283365495549	2.562080826604174	0.0	22.14307462225856	2.7900575289931133	0.0	22.13891585890903	2.6646054240649084	0.0	21.975949788346355	2.469169144179041	0.0	21.929175988463	2.252592094359057	0.0	22.04652847514769	2.152321293359706	0.0	22.302475247567084	2.4667562322611922	0.0	22.323778993032192	2.248439076392799	0.0	22.206512291474322	2.160081926471619	0.0
